<svg xmlns="http://www.w3.org/2000/svg" xmlns:xlink="http://www.w3.org/1999/xlink" xml:space="preserve" width="500" height="85"><defs><linearGradient id="n"><stop offset="0" stop-color="#c67ba4"/><stop offset=".147" stop-color="#c67ba4"/><stop offset=".147" stop-color="#eea8cf"/><stop offset=".288" stop-color="#eea8cf"/><stop offset=".288" stop-color="#d7c9ea"/><stop offset=".428" stop-color="#d7c9ea"/><stop offset=".428" stop-color="#fff"/><stop offset=".565" stop-color="#fff"/><stop offset=".565" stop-color="#d7c9ea"/><stop offset=".71" stop-color="#d7c9ea"/><stop offset=".71" stop-color="#9dc9e9"/><stop offset=".863" stop-color="#9dc9e9"/><stop offset=".863" stop-color="#6d84d3"/><stop offset="1" stop-color="#6d84d3"/></linearGradient><linearGradient id="m"><stop offset="0" stop-color="#d62913"/><stop offset=".147" stop-color="#d62913"/><stop offset=".147" stop-color="#ef7722"/><stop offset=".288" stop-color="#ef7722"/><stop offset=".288" stop-color="#ff9b55"/><stop offset=".428" stop-color="#ff9b55"/><stop offset=".428" stop-color="#fff"/><stop offset=".565" stop-color="#fff"/><stop offset=".565" stop-color="#d262a5"/><stop offset=".71" stop-color="#d262a5"/><stop offset=".71" stop-color="#b65591"/><stop offset=".863" stop-color="#b65591"/><stop offset=".863" stop-color="#a40462"/><stop offset="1" stop-color="#a40462"/></linearGradient><linearGradient id="h"><stop offset="0"/><stop offset=".147"/><stop offset=".147" stop-color="#bababa"/><stop offset=".288" stop-color="#bababa"/><stop offset=".288" stop-color="#fff"/><stop offset=".428" stop-color="#fff"/><stop offset=".428" stop-color="#baf484"/><stop offset=".565" stop-color="#baf484"/><stop offset=".565" stop-color="#fff"/><stop offset=".71" stop-color="#fff"/><stop offset=".71" stop-color="#bababa"/><stop offset=".863" stop-color="#bababa"/><stop offset=".863"/><stop offset="1"/></linearGradient><linearGradient id="c"><stop offset="0" stop-color="#5bcffb"/><stop offset=".199" stop-color="#5bcffb"/><stop offset=".199" stop-color="#f5abb9"/><stop offset=".4" stop-color="#f5abb9"/><stop offset=".4" stop-color="#fff"/><stop offset=".598" stop-color="#fff"/><stop offset=".6" stop-color="#f5abb9"/><stop offset=".8" stop-color="#f5abb9"/><stop offset=".8" stop-color="#5bcffb"/><stop offset="1" stop-color="#5bcffb"/></linearGradient><linearGradient id="g"><stop offset="0" stop-color="#3ba740"/><stop offset=".199" stop-color="#3ba740"/><stop offset=".199" stop-color="#a8d474"/><stop offset=".4" stop-color="#a8d474"/><stop offset=".4" stop-color="#fff"/><stop offset=".598" stop-color="#fff"/><stop offset=".6" stop-color="#ababab"/><stop offset=".8" stop-color="#ababab"/><stop offset=".8"/><stop offset="1"/></linearGradient><linearGradient id="e"><stop offset="0" stop-color="#ff1c8d"/><stop offset=".329" stop-color="#ff1c8d"/><stop offset=".329" stop-color="gold"/><stop offset=".656" stop-color="gold"/><stop offset=".656" stop-color="#1ab3ff"/><stop offset="1" stop-color="#1ab3ff"/></linearGradient><linearGradient id="i"><stop offset="0" stop-color="#fcf431"/><stop offset=".254" stop-color="#fcf431"/><stop offset=".254" stop-color="#fcfcfc"/><stop offset=".497" stop-color="#fcfcfc"/><stop offset=".497" stop-color="#9d59d2"/><stop offset=".75" stop-color="#9d59d2"/><stop offset=".75" stop-color="#282828"/><stop offset="1" stop-color="#282828"/></linearGradient><linearGradient id="l"><stop offset="0" stop-color="#ffd800"/><stop offset=".69" stop-color="#ffd800"/><stop offset=".7" stop-color="#7902aa"/><stop offset=".938" stop-color="#7902aa"/><stop offset=".955" stop-color="#ffd800"/><stop offset="1" stop-color="#ffd800"/></linearGradient><linearGradient id="k"><stop offset="0" stop-color="#fe76a2"/><stop offset=".199" stop-color="#fe76a2"/><stop offset=".199" stop-color="#fff"/><stop offset=".4" stop-color="#fff"/><stop offset=".4" stop-color="#bf12d7"/><stop offset=".598" stop-color="#bf12d7"/><stop offset=".6"/><stop offset=".8"/><stop offset=".8" stop-color="#303cbe"/><stop offset="1" stop-color="#303cbe"/></linearGradient><linearGradient id="b"><stop offset="0" stop-color="#038e70"/><stop offset=".147" stop-color="#038e70"/><stop offset=".147" stop-color="#21cfab"/><stop offset=".288" stop-color="#21cfab"/><stop offset=".288" stop-color="#99e9c2"/><stop offset=".428" stop-color="#99e9c2"/><stop offset=".428" stop-color="#fff"/><stop offset=".565" stop-color="#fff"/><stop offset=".565" stop-color="#7caee3"/><stop offset=".71" stop-color="#7caee3"/><stop offset=".71" stop-color="#5047cd"/><stop offset=".863" stop-color="#5047cd"/><stop offset=".863" stop-color="#3a1379"/><stop offset="1" stop-color="#3a1379"/></linearGradient><linearGradient id="d"><stop offset="0" stop-color="#d60270"/><stop offset=".4" stop-color="#d60270"/><stop offset=".4" stop-color="#9b4f96"/><stop offset=".608" stop-color="#9b4f96"/><stop offset=".608" stop-color="#0038a8"/><stop offset="1" stop-color="#0038a8"/></linearGradient><linearGradient id="f"><stop offset="0"/><stop offset=".254"/><stop offset=".254" stop-color="#a4a4a4"/><stop offset=".497" stop-color="#a4a4a4"/><stop offset=".497" stop-color="#fff"/><stop offset=".75" stop-color="#fff"/><stop offset=".75" stop-color="#810081"/><stop offset="1" stop-color="#810081"/></linearGradient><linearGradient id="j"><stop offset="0" stop-color="#b57fdd"/><stop offset=".329" stop-color="#b57fdd"/><stop offset=".329" stop-color="#fff"/><stop offset=".656" stop-color="#fff"/><stop offset=".656" stop-color="#49821e"/><stop offset="1" stop-color="#49821e"/></linearGradient><linearGradient xlink:href="#b" id="o" x1="100" x2="100" y1="46.427" y2="69" gradientUnits="userSpaceOnUse"/><linearGradient xlink:href="#c" id="A" x1="100" x2="100" y1="38" y2="69" gradientUnits="userSpaceOnUse"/><linearGradient xlink:href="#d" id="z" x1="100" x2="100" y1="38" y2="69" gradientUnits="userSpaceOnUse"/><linearGradient xlink:href="#e" id="y" x1="100" x2="100" y1="38" y2="69" gradientUnits="userSpaceOnUse"/><linearGradient xlink:href="#f" id="x" x1="100" x2="100" y1="38" y2="69" gradientUnits="userSpaceOnUse"/><linearGradient xlink:href="#g" id="w" x1="100" x2="100" y1="46.427" y2="69" gradientUnits="userSpaceOnUse"/><linearGradient xlink:href="#h" id="v" x1="100" x2="100" y1="38" y2="69" gradientUnits="userSpaceOnUse"/><linearGradient xlink:href="#i" id="u" x1="100" x2="100" y1="38" y2="69" gradientUnits="userSpaceOnUse"/><linearGradient xlink:href="#j" id="t" x1="100" x2="100" y1="46.427" y2="69" gradientUnits="userSpaceOnUse"/><linearGradient xlink:href="#k" id="s" x1="100" x2="100" y1="38" y2="69" gradientUnits="userSpaceOnUse"/><linearGradient xlink:href="#m" id="q" x1="100" x2="100" y1="46.427" y2="69" gradientUnits="userSpaceOnUse"/><linearGradient xlink:href="#n" id="p" x1="100" x2="100" y1="46.427" y2="69" gradientUnits="userSpaceOnUse"/><path id="a" d="M36 66.5h9v9H18v-67l26 7.378L57 50.5v-31l11 3.19V51.5l10-26 14 4v46H77v-8h6v-23l-10 31H51l-15-45z"/><path id="C" d="M105.96 68.98h10.54l2.763-5.44h19.124l2.933 5.44h10.498L134.9 38.21h-12.28l-16.66 30.77zm22.78-23.63 6.12 11.56h-12.07l5.95-11.56zm24.058 23.63h8.16V38.21h-8.16v30.77zm12.192 0h8.16V38.21h-8.16v30.77zm20.353-21.675h-8.16V68.98h8.16V47.305zm0-9.095h-8.16v6.375h8.16V38.21zm2.544 20.825q0 3.485.978 5.525.977 2.04 2.55 3.103 1.573 1.062 3.527 1.36 1.998.297 4.038.297h6.12q2.21 0 4.165-.297 1.955-.255 3.4-.978 1.488-.722 2.337-1.997.85-1.318.85-3.358v-.935h-7.65q0 .468-.127.935-.085.425-.552.765-.426.34-1.36.553-.936.212-2.593.212h-2.508q-2.55 0-3.782-.595-1.233-.595-1.233-2.337V59.97h19.805v-3.655q0-2.805-.722-4.632-.68-1.828-2.167-2.848-1.445-1.062-3.783-1.445-2.337-.425-5.567-.425h-5.695q-2.253 0-4.08.425-1.828.383-3.188 1.488-1.317 1.105-2.04 3.06-.723 1.955-.723 5.015v2.082zm8.16-3.91q0-.977.17-1.572.213-.595.808-.935.637-.34 1.785-.425 1.19-.128 3.187-.128 1.785 0 2.933.128 1.147.085 1.827.425.68.34.935.935t.255 1.572h-11.9zm29.256 1.743q0-.893.127-1.615.128-.723.553-1.19.425-.468 1.275-.723.85-.255 2.337-.255h4.803q1.19 0 2.125.17t1.53.638q.637.425.935 1.19.34.765.34 1.997v2.125q0 1.233-.34 1.998-.298.765-.935 1.232-.595.425-1.53.595-.935.17-2.125.17h-4.803q-1.487 0-2.337-.255-.85-.255-1.275-.722-.425-.468-.553-1.19-.127-.723-.127-1.615v-2.55zm-7.905 3.23q0 2.082.34 3.782.382 1.7 1.572 2.933 1.233 1.19 3.528 1.87 2.295.637 6.162.637h2.38q1.828 0 3.145-.297 1.36-.298 2.295-.85.935-.595 1.488-1.36.595-.808.935-1.828h.085v3.995h7.65V38.21h-8.16V51.3h-.085q-.213-1.275-.893-2.082-.68-.85-1.7-1.36-1.02-.51-2.252-.68-1.19-.213-2.465-.213H229q-3.867 0-6.162.68-2.295.638-3.528 1.87-1.19 1.19-1.572 2.89-.34 1.7-.34 3.783v3.91zm35.55 8.882h9.18v-22.1h.084l12.368 22.1h7.055l12.367-22.1h.085v22.1h9.18V38.21h-14.492l-10.668 19.805L267.44 38.21h-14.493v30.77zm53.176-8.245q0 2.678.807 4.378.81 1.657 2.09 2.592 1.32.935 2.89 1.275 1.62.34 3.19.34h12.2q1.57 0 3.15-.34 1.62-.34 2.89-1.275 1.32-.935 2.13-2.592.807-1.7.807-4.378V55.55q0-2.677-.806-4.335-.81-1.7-2.126-2.635-1.274-.935-2.89-1.275-1.572-.34-3.144-.34h-12.2q-1.57 0-3.188.34-1.574.34-2.89 1.275-1.276.935-2.084 2.635-.806 1.658-.806 4.335v5.185zm8.16-3.612q0-2.338 1.36-3.188 1.402-.85 4.207-.85h1.96q1.96 0 3.19.17 1.23.128 1.91.553.73.382.94 1.105.26.68.26 1.742v2.975q0 1.105-.25 1.785-.21.68-.933 1.105-.68.383-1.912.553-1.23.127-3.186.127h-1.96q-2.804 0-4.206-.85-1.36-.85-1.36-3.187v-2.04zm31.86-.255q0-.893.126-1.615.128-.723.553-1.19.425-.468 1.275-.723.85-.255 2.337-.255h4.803q1.19 0 2.125.17t1.53.638q.637.425.935 1.19.34.765.34 1.997v2.125q0 1.233-.34 1.998-.298.765-.935 1.232-.595.425-1.53.595-.935.17-2.125.17h-4.803q-1.487 0-2.337-.255-.85-.255-1.275-.722-.425-.468-.553-1.19-.127-.723-.127-1.615v-2.55zm-7.906 3.23q0 2.082.34 3.782.382 1.7 1.572 2.933 1.233 1.19 3.528 1.87 2.295.637 6.162.637h2.38q1.828 0 3.145-.297 1.36-.298 2.295-.85.935-.595 1.488-1.36.595-.808.935-1.828h.085v3.995h7.65V38.21h-8.16V51.3h-.085q-.213-1.275-.893-2.082-.68-.85-1.7-1.36-1.02-.51-2.252-.68-1.19-.213-2.465-.213h-2.423q-3.867 0-6.162.68-2.295.638-3.528 1.87-1.19 1.19-1.572 2.89-.34 1.7-.34 3.783v3.91zm40.02-3.23q0-.893.127-1.615.127-.723.552-1.19.425-.468 1.275-.723.85-.255 2.338-.255h4.802q1.19 0 2.125.17t1.53.638q.638.425.935 1.19.34.765.34 1.997v2.125q0 1.233-.34 1.998-.297.765-.935 1.232-.595.425-1.53.595-.935.17-2.125.17h-4.802q-1.488 0-2.338-.255-.85-.255-1.275-.722-.425-.468-.552-1.19-.128-.723-.128-1.615v-2.55zm-7.906 3.23q0 2.082.34 3.782.383 1.7 1.573 2.933 1.232 1.19 3.527 1.87 2.295.637 6.163.637h2.38q1.827 0 3.145-.297 1.36-.298 2.295-.85.935-.595 1.487-1.36.595-.808.935-1.828h.085v3.995h7.65V38.21h-8.16V51.3h-.085q-.212-1.275-.892-2.082-.68-.85-1.7-1.36-1.02-.51-2.253-.68-1.19-.213-2.465-.213h-2.422q-3.868 0-6.163.68-2.295.638-3.527 1.87-1.19 1.19-1.573 2.89-.34 1.7-.34 3.783v3.91zM402 59.035q0 3.485.976 5.525.978 2.04 2.55 3.103 1.573 1.062 3.528 1.36 1.997.297 4.037.297h6.12q2.21 0 4.17-.297 1.96-.255 3.4-.978 1.49-.722 2.34-1.997.85-1.318.85-3.358v-.935h-7.65q0 .468-.13.935-.08.425-.55.765-.42.34-1.36.553-.93.212-2.59.212h-2.5q-2.55 0-3.78-.595t-1.23-2.337V59.97h19.805v-3.655q0-2.805-.724-4.632-.68-1.828-2.17-2.848-1.45-1.062-3.785-1.445-2.336-.425-5.566-.425h-5.7q-2.25 0-4.08.425-1.83.383-3.19 1.488-1.314 1.105-2.04 3.06-.72 1.955-.72 5.015v2.082zm8.16-3.91q0-.977.17-1.572.21-.595.806-.935.638-.34 1.785-.425 1.19-.128 3.19-.128 1.79 0 2.93.128 1.15.085 1.83.425.68.34.94.935t.26 1.572h-11.9zm21.902 13.855h8.16V56.995q0-1.955 1.317-2.805 1.31-.85 3.44-.85 1.23 0 1.99.255t1.19.765q.42.51.55 1.275.17.765.17 1.785h7.05q.04-.595.04-1.02.04-.467.04-.892 0-4.505-1.916-6.503-1.91-2.04-6.374-2.04-1.4 0-2.676.213-1.277.212-2.34.722t-1.828 1.403q-.767.85-1.107 2.125h-.088v-4.123h-7.65V68.98zm24.998-6.757q0 1.997.552 3.357.553 1.36 1.743 2.21 1.232.808 3.187 1.19 1.998.34 4.803.34h7.735q3.485 0 5.737-.34 2.253-.297 3.528-1.105 1.317-.85 1.827-2.21.51-1.402.51-3.57 0-1.445-.297-2.72-.255-1.317-1.318-2.295-1.02-.977-3.145-1.53-2.082-.595-5.737-.595h-5.653q-1.615 0-2.592-.042-.935-.085-1.445-.213-.51-.17-.68-.425-.17-.255-.17-.595 0-.552.212-.85.213-.34.808-.51.637-.17 1.7-.212 1.105-.043 2.89-.043 1.827 0 2.932.085 1.148.043 1.785.213.638.127.893.425.297.297.467.765h8.16q-.042-1.913-.51-3.188-.467-1.275-1.827-1.997-1.36-.765-3.825-1.063-2.465-.34-6.46-.34h-5.695q-2.125 0-3.953.213-1.785.212-3.145.892-1.317.638-2.082 1.87-.765 1.19-.765 3.23 0 2.253.467 3.74.468 1.445 1.615 2.338 1.148.85 3.018 1.232 1.912.34 4.76.34h7.65q2.167 0 2.847.425.68.383.68 1.36 0 .51-.212.808-.213.297-.765.51-.553.17-1.488.255-.935.042-2.38.042h-2.89q-1.742 0-2.762-.127-.978-.17-1.488-.425t-.68-.595q-.127-.383-.127-.85h-8.415z"/><radialGradient xlink:href="#l" id="r" cx="385.174" cy="57.994" r="10.5" fx="385.174" fy="57.994" gradientUnits="userSpaceOnUse"/><clipPath id="B"><use xlink:href="#a" width="100%" height="100%"/></clipPath></defs><path fill="url(#o)" d="M457.1 62.013q0 1.997.552 3.357.553 1.36 1.743 2.21 1.232.808 3.187 1.19 1.998.34 4.803.34h7.735q3.485 0 5.737-.34 2.253-.297 3.528-1.105 1.317-.85 1.827-2.21.51-1.402.51-3.57 0-1.445-.297-2.72-.255-1.317-1.318-2.295-1.02-.977-3.145-1.53-2.082-.595-5.737-.595h-5.653q-1.615 0-2.592-.042-.935-.085-1.445-.213-.51-.17-.68-.425-.17-.255-.17-.595 0-.552.212-.85.213-.34.808-.51.637-.17 1.7-.212 1.105-.043 2.89-.043 1.827 0 2.932.085 1.148.043 1.785.213.638.127.893.425.297.297.467.765h8.16q-.042-1.913-.51-3.188-.467-1.275-1.827-1.997-1.36-.765-3.825-1.063-2.465-.34-6.46-.34h-5.695q-2.125 0-3.953.213-1.785.212-3.145.892-1.317.638-2.082 1.87-.765 1.19-.765 3.23 0 2.253.467 3.74.468 1.445 1.615 2.338 1.148.85 3.018 1.232 1.912.34 4.76.34h7.65q2.167 0 2.847.425.68.383.68 1.36 0 .51-.212.808-.213.297-.765.51-.553.17-1.488.255-.935.042-2.38.042h-2.89q-1.742 0-2.762-.127-.978-.17-1.488-.425t-.68-.595q-.127-.383-.127-.85z"/><path fill="url(#p)" d="M432.102 68.77h8.16V56.785q0-1.955 1.317-2.805 1.31-.85 3.44-.85 1.23 0 1.99.255t1.19.765q.42.51.55 1.275.17.765.17 1.785h7.05q.04-.595.04-1.02.04-.467.04-.892 0-4.505-1.916-6.503-1.91-2.04-6.374-2.04-1.4 0-2.676.213-1.277.212-2.34.722t-1.828 1.403q-.767.85-1.107 2.125h-.088v-4.123h-7.65V68.77Z"/><path fill="url(#q)" d="M402.04 58.825q0 3.485.976 5.525.978 2.04 2.55 3.103 1.573 1.062 3.528 1.36 1.997.297 4.037.297h6.12q2.21 0 4.17-.297 1.96-.255 3.4-.978 1.49-.722 2.34-1.997.85-1.318.85-3.358v-.935h-7.65q0 .468-.13.935-.08.425-.55.765-.42.34-1.36.553-.93.212-2.59.212h-2.5q-2.55 0-3.78-.595t-1.23-2.337V59.76h19.805v-3.655q0-2.805-.724-4.632-.68-1.828-2.17-2.848-1.45-1.062-3.785-1.445-2.336-.425-5.566-.425h-5.7q-2.25 0-4.08.425-1.83.383-3.19 1.488-1.314 1.105-2.04 3.06-.72 1.955-.72 5.015v2.082zm8.16-3.91q0-.977.17-1.572.21-.595.806-.935.638-.34 1.785-.425 1.19-.128 3.19-.128 1.79 0 2.93.128 1.15.085 1.83.425.68.34.94.935.26.595.26 1.572h-11.9z"/><path fill="url(#r)" d="M378.298 56.658q0-.893.127-1.615.127-.723.552-1.19.425-.468 1.275-.723.85-.255 2.338-.255h4.802q1.19 0 2.125.17t1.53.638q.638.425.935 1.19.34.765.34 1.997v2.125q0 1.233-.34 1.998-.297.765-.935 1.232-.595.425-1.53.595-.935.17-2.125.17h-4.802q-1.488 0-2.338-.255-.85-.255-1.275-.722-.425-.468-.552-1.19-.128-.723-.128-1.615v-2.55zm-7.906 3.23q0 2.082.34 3.782.383 1.7 1.573 2.933 1.232 1.19 3.527 1.87 2.295.637 6.163.637h2.38q1.827 0 3.145-.297 1.36-.298 2.295-.85.935-.595 1.487-1.36.595-.808.935-1.828h.085v3.995h7.65V38h-8.16v13.09h-.085q-.212-1.275-.892-2.082-.68-.85-1.7-1.36-1.02-.51-2.253-.68-1.19-.213-2.465-.213h-2.422q-3.868 0-6.163.68-2.295.638-3.527 1.87-1.19 1.19-1.573 2.89-.34 1.7-.34 3.783z"/><path fill="url(#s)" d="M346.184 56.658q0-.893.126-1.615.128-.723.553-1.19.425-.468 1.275-.723.85-.255 2.337-.255h4.803q1.19 0 2.125.17t1.53.638q.637.425.935 1.19.34.765.34 1.997v2.125q0 1.233-.34 1.998-.298.765-.935 1.232-.595.425-1.53.595-.935.17-2.125.17h-4.803q-1.487 0-2.337-.255-.85-.255-1.275-.722-.425-.468-.553-1.19-.127-.723-.127-1.615v-2.55zm-7.906 3.23q0 2.082.34 3.782.382 1.7 1.572 2.933 1.233 1.19 3.528 1.87 2.295.637 6.162.637h2.38q1.828 0 3.145-.297 1.36-.298 2.295-.85.935-.595 1.488-1.36.595-.808.935-1.828h.085v3.995h7.65V38h-8.16v13.09h-.085q-.213-1.275-.893-2.082-.68-.85-1.7-1.36-1.02-.51-2.252-.68-1.19-.213-2.465-.213h-2.423q-3.867 0-6.162.68-2.295.638-3.528 1.87-1.19 1.19-1.572 2.89-.34 1.7-.34 3.783z"/><path fill="url(#t)" d="M306.164 60.525q0 2.678.807 4.378.81 1.657 2.09 2.592 1.32.935 2.89 1.275 1.62.34 3.19.34h12.2q1.57 0 3.15-.34 1.62-.34 2.89-1.275 1.32-.935 2.13-2.592.807-1.7.807-4.378V55.34q0-2.677-.806-4.335-.81-1.7-2.126-2.635-1.274-.935-2.89-1.275-1.572-.34-3.144-.34h-12.2q-1.57 0-3.188.34-1.574.34-2.89 1.275-1.276.935-2.084 2.635-.806 1.658-.806 4.335v5.185zm8.16-3.612q0-2.338 1.36-3.188 1.402-.85 4.207-.85h1.96q1.96 0 3.19.17 1.23.128 1.91.553.73.382.94 1.105.26.68.26 1.742v2.975q0 1.105-.25 1.785-.21.68-.933 1.105-.68.383-1.912.553-1.23.127-3.186.127h-1.96q-2.804 0-4.206-.85-1.36-.85-1.36-3.187v-2.04z"/><path fill="url(#u)" d="M252.988 68.77h9.18v-22.1h.084l12.368 22.1h7.055l12.367-22.1h.085v22.1h9.18V38h-14.492l-10.668 19.805L267.48 38h-14.493v30.77z"/><path fill="url(#v)" d="M225.343 56.658q0-.893.127-1.615.128-.723.553-1.19.425-.468 1.275-.723.85-.255 2.337-.255h4.803q1.19 0 2.125.17t1.53.638q.637.425.935 1.19.34.765.34 1.997v2.125q0 1.233-.34 1.998-.298.765-.935 1.232-.595.425-1.53.595-.935.17-2.125.17h-4.803q-1.487 0-2.337-.255-.85-.255-1.275-.722-.425-.468-.553-1.19-.127-.723-.127-1.615zm-7.905 3.23q0 2.082.34 3.782.382 1.7 1.572 2.933 1.233 1.19 3.528 1.87 2.295.637 6.162.637h2.38q1.828 0 3.145-.297 1.36-.298 2.295-.85.935-.595 1.488-1.36.595-.808.935-1.828h.085v3.995h7.65V38h-8.16v13.09h-.085q-.213-1.275-.893-2.082-.68-.85-1.7-1.36-1.02-.51-2.252-.68-1.19-.213-2.465-.213h-2.423q-3.867 0-6.162.68-2.295.638-3.528 1.87-1.19 1.19-1.572 2.89-.34 1.7-.34 3.783z"/><path fill="url(#w)" d="M187.927 58.825q0 3.485.978 5.525.977 2.04 2.55 3.103 1.573 1.062 3.527 1.36 1.998.297 4.038.297h6.12q2.21 0 4.165-.297 1.955-.255 3.4-.978 1.488-.722 2.337-1.997.85-1.318.85-3.358v-.935h-7.65q0 .468-.127.935-.085.425-.552.765-.426.34-1.36.553-.936.212-2.593.212h-2.508q-2.55 0-3.782-.595-1.233-.595-1.233-2.337V59.76h19.805v-3.655q0-2.805-.722-4.632-.68-1.828-2.167-2.848-1.445-1.062-3.783-1.445-2.337-.425-5.567-.425h-5.695q-2.253 0-4.08.425-1.828.383-3.188 1.488-1.317 1.105-2.04 3.06-.723 1.955-.723 5.015zm8.16-3.91q0-.977.17-1.572.213-.595.808-.935.637-.34 1.785-.425 1.19-.128 3.187-.128 1.785 0 2.933.128 1.147.085 1.827.425.68.34.935.935t.255 1.572z"/><path fill="url(#x)" d="M185.383 47.095h-8.16V68.77h8.16zm0-9.095h-8.16v6.375h8.16z"/><path fill="url(#y)" d="M165.03 68.77h8.16V38h-8.16z"/><path fill="url(#z)" d="M152.838 68.77h8.16V38h-8.16z"/><path fill="url(#A)" d="M106 68.77h10.54l2.763-5.44h19.124l2.933 5.44h10.498L134.94 38h-12.28zm22.78-23.63 6.12 11.56h-12.07z"/><path fill="#e40303" d="m18 8.5 74 21v46H18z" clip-path="url(#B)"/><path fill="#ff8c00" d="m18 19.667 74 17.5V75.5H18z" clip-path="url(#B)"/><path fill="#ffed00" d="m18 30.833 74 14V75.5H18z" clip-path="url(#B)"/><path fill="#008026" d="m18 42 74 10.5v23H18z" clip-path="url(#B)"/><path fill="#004dff" d="m18 53.167 74 7V75.5H18z" clip-path="url(#B)"/><path fill="#750787" d="m18 64.333 74 3.5V75.5H18z" clip-path="url(#B)"/><use xlink:href="#a" fill="#fff" fill-opacity=".5"/><use xlink:href="#a" fill="none" stroke="#404040" stroke-linejoin="round" stroke-width="2"/><use xlink:href="#C" fill="#fff" fill-opacity=".658"/><use xlink:href="#C" fill="none" stroke="#404040" stroke-linejoin="round" stroke-width="2"/></svg>